<svg width="512" height="512" viewBox="0 0 512 512" fill="none" xmlns="http://www.w3.org/2000/svg">
  <!-- Background Circle -->
  <circle cx="256" cy="256" r="256" fill="#0a192f"/>
  
  <!-- Gradient Border -->
  <circle cx="256" cy="256" r="240" fill="none" stroke="url(#gradient)" stroke-width="8"/>
  
  <!-- TC Letters -->
  <defs>
    <linearGradient id="gradient" x1="0%" y1="0%" x2="100%" y2="100%">
      <stop offset="0%" style="stop-color:#2dd4bf;stop-opacity:1" />
      <stop offset="50%" style="stop-color:#22d3ee;stop-opacity:1" />
      <stop offset="100%" style="stop-color:#60a5fa;stop-opacity:1" />
    </linearGradient>
  </defs>
  
  <!-- Letter T -->
  <path d="M 160 180 L 280 180 L 280 210 L 235 210 L 235 350 L 205 350 L 205 210 L 160 210 Z" 
        fill="#2dd4bf"/>
  
  <!-- Letter C -->
  <path d="M 320 265 Q 320 220 345 195 Q 370 170 410 170 Q 440 170 460 185 L 445 210 Q 430 200 410 200 Q 385 200 370 215 Q 355 230 355 265 Q 355 300 370 315 Q 385 330 410 330 Q 430 330 445 320 L 460 345 Q 440 360 410 360 Q 370 360 345 335 Q 320 310 320 265 Z" 
        fill="#2dd4bf"/>
  
  <!-- Decorative Dots -->
  <circle cx="185" cy="375" r="6" fill="#22d3ee" opacity="0.8"/>
  <circle cx="210" cy="385" r="4" fill="#60a5fa" opacity="0.6"/>
  <circle cx="160" cy="385" r="4" fill="#60a5fa" opacity="0.6"/>
</svg>
